# xmcd
#
# Track frame offsets:
#	150
#	36286
#	69197
#	98633
#	129555
#	157843
#	198099
#	225098
#	256281
#	287866
#	318540
#
# Disc length: 4604 seconds
#
# Revision: 1
# Processed by: cddbd v1.5.2PL0 Copyright (c) Steve Scherf et al.
# Submitted via: audiograbber 1.83.01
#
DISCID=8711fa0b
DTITLE=CD Pool - Club - August 07
DYEAR=2007
DGENRE=Club
TTITLE0=Booty Luv - Don't Mess With My Man (Thomas Gold Disco Dub)
TTITLE1=Dave Spoon FT. Lisa Maffia - Bad Girl (At Night) (Funkagenda's Law Of S
TTITLE1=traightness Remix)
TTITLE2=Jack Rokka FT. Betty Boo - Take Off (Digital Dog Filthy Disco Remix)
TTITLE3=Charlean Dance - Mr DJ (Richard Grey Remix)
TTITLE4=Crystal Ball - Baby Boy (Original EG Mix)
TTITLE5=Groove 'N Gear - Say That You Wanna (Do It Again) (Vocal Mix)
TTITLE6=Phunk Warriorz - Don't Cha (Mark Wilkinson Mix)
TTITLE7=Hernandez Vs DJ Tyo - Let You Down (Phunkk Mob Dub Mix)
TTITLE8=Gianluca Luisi - You Can't Stop (Original Mix)
TTITLE9=Afrika Bambaata - Pupunanny (Get Far Remix 2007)
TTITLE10=Q45 and Amy B - Naughty (Vandalism Vocal Remix)
EXTD=
EXTT0=
EXTT1=
EXTT2=
EXTT3=
EXTT4=
EXTT5=
EXTT6=
EXTT7=
EXTT8=
EXTT9=
EXTT10=
PLAYORDER=
